{
	"asset":{
		"generator":"Khronos glTF Blender I/O v4.0.44",
		"version":"2.0"
	},
	"scene":0,
	"scenes":[
		{
			"name":"Scene",
			"nodes":[
				0
			]
		}
	],
	"nodes":[
		{
			"mesh":0,
			"name":"SubmachineGun",
			"rotation":[
				0,
				0.7071068286895752,
				0,
				0.7071068286895752
			],
			"scale":[
				0.125,
				0.125,
				0.125
			]
		}
	],
	"materials":[
		{
			"doubleSided":true,
			"name":"DarkMetal.004",
			"pbrMetallicRoughness":{
				"baseColorFactor":[
					0.04699999839067459,
					0.04695870354771614,
					0.045788172632455826,
					0
				],
				"metallicFactor":0,
				"roughnessFactor":0.690034806728363
			}
		},
		{
			"doubleSided":true,
			"name":"Metal.004",
			"pbrMetallicRoughness":{
				"baseColorFactor":[
					0.0666259378194809,
					0.06847818195819855,
					0.06700000166893005,
					0
				],
				"metallicFactor":0,
				"roughnessFactor":0.690034806728363
			}
		},
		{
			"doubleSided":true,
			"name":"Grey.004",
			"pbrMetallicRoughness":{
				"baseColorFactor":[
					0.04111980274319649,
					0.042213838547468185,
					0.04445183649659157,
					0
				],
				"metallicFactor":0,
				"roughnessFactor":0.690034806728363
			}
		},
		{
			"doubleSided":true,
			"name":"Black.004",
			"pbrMetallicRoughness":{
				"baseColorFactor":[
					0.026966236531734467,
					0.02748231776058674,
					0.02909727953374386,
					0
				],
				"metallicFactor":0,
				"roughnessFactor":0.690034806728363
			}
		}
	],
	"meshes":[
		{
			"name":"SubmachineGun",
			"primitives":[
				{
					"attributes":{
						"POSITION":0,
						"NORMAL":1,
						"TEXCOORD_0":2
					},
					"indices":3,
					"material":0
				},
				{
					"attributes":{
						"POSITION":4,
						"NORMAL":5,
						"TEXCOORD_0":6
					},
					"indices":7,
					"material":1
				},
				{
					"attributes":{
						"POSITION":8,
						"NORMAL":9,
						"TEXCOORD_0":10
					},
					"indices":11,
					"material":2
				},
				{
					"attributes":{
						"POSITION":12,
						"NORMAL":13,
						"TEXCOORD_0":14
					},
					"indices":15,
					"material":3
				}
			]
		}
	],
	"accessors":[
		{
			"bufferView":0,
			"componentType":5126,
			"count":720,
			"max":[
				3.238765001296997,
				0.9914873242378235,
				0.1592726856470108
			],
			"min":[
				-0.29576170444488525,
				-0.5792954564094543,
				-0.15927265584468842
			],
			"type":"VEC3"
		},
		{
			"bufferView":1,
			"componentType":5126,
			"count":720,
			"type":"VEC3"
		},
		{
			"bufferView":2,
			"componentType":5126,
			"count":720,
			"type":"VEC2"
		},
		{
			"bufferView":3,
			"componentType":5123,
			"count":1308,
			"type":"SCALAR"
		},
		{
			"bufferView":4,
			"componentType":5126,
			"count":498,
			"max":[
				2.7848117351531982,
				0.7869576215744019,
				0.11370085924863815
			],
			"min":[
				-1.7902649641036987,
				-0.39735206961631775,
				-0.11370082199573517
			],
			"type":"VEC3"
		},
		{
			"bufferView":5,
			"componentType":5126,
			"count":498,
			"type":"VEC3"
		},
		{
			"bufferView":6,
			"componentType":5126,
			"count":498,
			"type":"VEC2"
		},
		{
			"bufferView":7,
			"componentType":5123,
			"count":1146,
			"type":"SCALAR"
		},
		{
			"bufferView":8,
			"componentType":5126,
			"count":972,
			"max":[
				2.627368211746216,
				0.9088250994682312,
				0.12871716916561127
			],
			"min":[
				0.002597770420834422,
				0.34093326330184937,
				-0.12920203804969788
			],
			"type":"VEC3"
		},
		{
			"bufferView":9,
			"componentType":5126,
			"count":972,
			"type":"VEC3"
		},
		{
			"bufferView":10,
			"componentType":5126,
			"count":972,
			"type":"VEC2"
		},
		{
			"bufferView":11,
			"componentType":5123,
			"count":1632,
			"type":"SCALAR"
		},
		{
			"bufferView":12,
			"componentType":5126,
			"count":176,
			"max":[
				1.0065219402313232,
				0.25948694348335266,
				0.07552798092365265
			],
			"min":[
				0.3346019685268402,
				-0.7390573620796204,
				-0.07552789151668549
			],
			"type":"VEC3"
		},
		{
			"bufferView":13,
			"componentType":5126,
			"count":176,
			"type":"VEC3"
		},
		{
			"bufferView":14,
			"componentType":5126,
			"count":176,
			"type":"VEC2"
		},
		{
			"bufferView":15,
			"componentType":5123,
			"count":282,
			"type":"SCALAR"
		}
	],
	"bufferViews":[
		{
			"buffer":0,
			"byteLength":8640,
			"byteOffset":0,
			"target":34962
		},
		{
			"buffer":0,
			"byteLength":8640,
			"byteOffset":8640,
			"target":34962
		},
		{
			"buffer":0,
			"byteLength":5760,
			"byteOffset":17280,
			"target":34962
		},
		{
			"buffer":0,
			"byteLength":2616,
			"byteOffset":23040,
			"target":34963
		},
		{
			"buffer":0,
			"byteLength":5976,
			"byteOffset":25656,
			"target":34962
		},
		{
			"buffer":0,
			"byteLength":5976,
			"byteOffset":31632,
			"target":34962
		},
		{
			"buffer":0,
			"byteLength":3984,
			"byteOffset":37608,
			"target":34962
		},
		{
			"buffer":0,
			"byteLength":2292,
			"byteOffset":41592,
			"target":34963
		},
		{
			"buffer":0,
			"byteLength":11664,
			"byteOffset":43884,
			"target":34962
		},
		{
			"buffer":0,
			"byteLength":11664,
			"byteOffset":55548,
			"target":34962
		},
		{
			"buffer":0,
			"byteLength":7776,
			"byteOffset":67212,
			"target":34962
		},
		{
			"buffer":0,
			"byteLength":3264,
			"byteOffset":74988,
			"target":34963
		},
		{
			"buffer":0,
			"byteLength":2112,
			"byteOffset":78252,
			"target":34962
		},
		{
			"buffer":0,
			"byteLength":2112,
			"byteOffset":80364,
			"target":34962
		},
		{
			"buffer":0,
			"byteLength":1408,
			"byteOffset":82476,
			"target":34962
		},
		{
			"buffer":0,
			"byteLength":564,
			"byteOffset":83884,
			"target":34963
		}
	],
	"buffers":[
		{
			"byteLength":84448,
			"uri":"SubmachineGun.bin"
		}
	]
}
