{
	"asset":{
		"generator":"Khronos glTF Blender I/O v4.0.44",
		"version":"2.0"
	},
	"scene":0,
	"scenes":[
		{
			"name":"Scene",
			"nodes":[
				0
			]
		}
	],
	"nodes":[
		{
			"mesh":0,
			"name":"Cylinder"
		}
	],
	"meshes":[
		{
			"name":"Cylinder.001",
			"primitives":[
				{
					"attributes":{
						"COLOR_0":0,
						"POSITION":1,
						"NORMAL":2,
						"TEXCOORD_0":3
					},
					"indices":4
				}
			]
		}
	],
	"accessors":[
		{
			"bufferView":0,
			"componentType":5123,
			"count":128,
			"normalized":true,
			"type":"VEC4"
		},
		{
			"bufferView":1,
			"componentType":5126,
			"count":128,
			"max":[
				2.2503538131713867,
				0.10810117423534393,
				0.2655879855155945
			],
			"min":[
				-1.9585705995559692,
				-0.42307472229003906,
				-0.2655879855155945
			],
			"type":"VEC3"
		},
		{
			"bufferView":2,
			"componentType":5126,
			"count":128,
			"type":"VEC3"
		},
		{
			"bufferView":3,
			"componentType":5126,
			"count":128,
			"type":"VEC2"
		},
		{
			"bufferView":4,
			"componentType":5123,
			"count":186,
			"type":"SCALAR"
		}
	],
	"bufferViews":[
		{
			"buffer":0,
			"byteLength":1024,
			"byteOffset":0,
			"target":34962
		},
		{
			"buffer":0,
			"byteLength":1536,
			"byteOffset":1024,
			"target":34962
		},
		{
			"buffer":0,
			"byteLength":1536,
			"byteOffset":2560,
			"target":34962
		},
		{
			"buffer":0,
			"byteLength":1024,
			"byteOffset":4096,
			"target":34962
		},
		{
			"buffer":0,
			"byteLength":372,
			"byteOffset":5120,
			"target":34963
		}
	],
	"buffers":[
		{
			"byteLength":5492,
			"uri":"bullet.bin"
		}
	]
}
