{
	"asset":{
		"generator":"Khronos glTF Blender I/O v4.0.43",
		"version":"2.0"
	},
	"scene":0,
	"scenes":[
		{
			"name":"Scene",
			"nodes":[
				0,
				1
			]
		}
	],
	"nodes":[
		{
			"name":"Empty",
			"rotation":[
				0.7071068286895752,
				0,
				0,
				0.7071068286895752
			]
		},
		{
			"mesh":0,
			"name":"AWP",
			"rotation":[
				0,
				0,
				-0.7071068286895752,
				0.7071068286895752
			],
			"scale":[
				0.07094385474920273,
				0.07094385474920273,
				0.07094385474920273
			],
			"translation":[
				0.7457560300827026,
				0.31662487983703613,
				0
			]
		}
	],
	"meshes":[
		{
			"name":"Cylinder.001",
			"primitives":[
				{
					"attributes":{
						"COLOR_0":0,
						"POSITION":1,
						"NORMAL":2,
						"TEXCOORD_0":3
					},
					"indices":4
				}
			]
		}
	],
	"accessors":[
		{
			"bufferView":0,
			"componentType":5123,
			"count":991,
			"normalized":true,
			"type":"VEC4"
		},
		{
			"bufferView":1,
			"componentType":5126,
			"count":991,
			"max":[
				10.69281005859375,
				23.97627067565918,
				1.5637861490249634
			],
			"min":[
				-1.563786268234253,
				-44.88463592529297,
				-1.5637861490249634
			],
			"type":"VEC3"
		},
		{
			"bufferView":2,
			"componentType":5126,
			"count":991,
			"type":"VEC3"
		},
		{
			"bufferView":3,
			"componentType":5126,
			"count":991,
			"type":"VEC2"
		},
		{
			"bufferView":4,
			"componentType":5123,
			"count":2388,
			"type":"SCALAR"
		}
	],
	"bufferViews":[
		{
			"buffer":0,
			"byteLength":7928,
			"byteOffset":0,
			"target":34962
		},
		{
			"buffer":0,
			"byteLength":11892,
			"byteOffset":7928,
			"target":34962
		},
		{
			"buffer":0,
			"byteLength":11892,
			"byteOffset":19820,
			"target":34962
		},
		{
			"buffer":0,
			"byteLength":7928,
			"byteOffset":31712,
			"target":34962
		},
		{
			"buffer":0,
			"byteLength":4776,
			"byteOffset":39640,
			"target":34963
		}
	],
	"buffers":[
		{
			"byteLength":44416,
			"uri":"sniper.bin"
		}
	]
}
