{
	"asset":{
		"generator":"Khronos glTF Blender I/O v4.0.44",
		"version":"2.0"
	},
	"scene":0,
	"scenes":[
		{
			"name":"Scene",
			"nodes":[
				0
			]
		}
	],
	"nodes":[
		{
			"mesh":0,
			"name":"SniperRifle",
			"rotation":[
				0,
				0.7071068286895752,
				0,
				0.7071068286895752
			],
			"scale":[
				0.125,
				0.125,
				0.125
			]
		}
	],
	"materials":[
		{
			"doubleSided":true,
			"name":"Green",
			"pbrMetallicRoughness":{
				"baseColorFactor":[
					0.09307458251714706,
					0.10945694893598557,
					0.08227676898241043,
					1
				],
				"metallicFactor":0,
				"roughnessFactor":0.5
			}
		},
		{
			"doubleSided":true,
			"name":"Black",
			"pbrMetallicRoughness":{
				"baseColorFactor":[
					0.027325470000505447,
					0.027319684624671936,
					0.029554707929491997,
					1
				],
				"metallicFactor":0,
				"roughnessFactor":0.5
			}
		},
		{
			"doubleSided":true,
			"name":"Glass",
			"pbrMetallicRoughness":{
				"baseColorFactor":[
					0.0026341548655182123,
					0.005688419099897146,
					0.01463334821164608,
					1
				],
				"metallicFactor":0,
				"roughnessFactor":0.5
			}
		},
		{
			"doubleSided":true,
			"name":"Grey",
			"pbrMetallicRoughness":{
				"baseColorFactor":[
					0.04092206433415413,
					0.04230956360697746,
					0.0451829619705677,
					1
				],
				"metallicFactor":0,
				"roughnessFactor":0.5
			}
		},
		{
			"doubleSided":true,
			"name":"Viewport",
			"pbrMetallicRoughness":{
				"baseColorFactor":[
					0.800000011920929,
					0.800000011920929,
					0.800000011920929,
					1
				],
				"metallicFactor":0,
				"roughnessFactor":0.5
			}
		}
	],
	"meshes":[
		{
			"name":"Sniper",
			"primitives":[
				{
					"attributes":{
						"POSITION":0,
						"NORMAL":1,
						"TEXCOORD_0":2
					},
					"indices":3,
					"material":0
				},
				{
					"attributes":{
						"POSITION":4,
						"NORMAL":5,
						"TEXCOORD_0":6
					},
					"indices":7,
					"material":1
				},
				{
					"attributes":{
						"POSITION":8,
						"NORMAL":9,
						"TEXCOORD_0":10
					},
					"indices":11,
					"material":2
				},
				{
					"attributes":{
						"POSITION":12,
						"NORMAL":13,
						"TEXCOORD_0":14
					},
					"indices":15,
					"material":3
				},
				{
					"attributes":{
						"POSITION":16,
						"NORMAL":17,
						"TEXCOORD_0":18
					},
					"indices":19,
					"material":4
				}
			]
		}
	],
	"accessors":[
		{
			"bufferView":0,
			"componentType":5126,
			"count":1045,
			"max":[
				2.9730515480041504,
				0.40785813331604004,
				0.13524387776851654
			],
			"min":[
				-1.6576178073883057,
				-0.36866503953933716,
				-0.13524384796619415
			],
			"type":"VEC3"
		},
		{
			"bufferView":1,
			"componentType":5126,
			"count":1045,
			"type":"VEC3"
		},
		{
			"bufferView":2,
			"componentType":5126,
			"count":1045,
			"type":"VEC2"
		},
		{
			"bufferView":3,
			"componentType":5123,
			"count":1998,
			"type":"SCALAR"
		},
		{
			"bufferView":4,
			"componentType":5126,
			"count":1755,
			"max":[
				5.311476230621338,
				0.817220151424408,
				0.3043522238731384
			],
			"min":[
				-1.93317711353302,
				-0.38356587290763855,
				-0.1413850337266922
			],
			"type":"VEC3"
		},
		{
			"bufferView":5,
			"componentType":5126,
			"count":1755,
			"type":"VEC3"
		},
		{
			"bufferView":6,
			"componentType":5126,
			"count":1755,
			"type":"VEC2"
		},
		{
			"bufferView":7,
			"componentType":5123,
			"count":3000,
			"type":"SCALAR"
		},
		{
			"bufferView":8,
			"componentType":5126,
			"count":16,
			"max":[
				2.0987679958343506,
				0.7902026176452637,
				0.11436712741851807
			],
			"min":[
				0.0814463347196579,
				0.5614681243896484,
				-0.11436745524406433
			],
			"type":"VEC3"
		},
		{
			"bufferView":9,
			"componentType":5126,
			"count":16,
			"type":"VEC3"
		},
		{
			"bufferView":10,
			"componentType":5126,
			"count":16,
			"type":"VEC2"
		},
		{
			"bufferView":11,
			"componentType":5123,
			"count":36,
			"type":"SCALAR"
		},
		{
			"bufferView":12,
			"componentType":5126,
			"count":72,
			"max":[
				0.3442745506763458,
				0.10600420087575912,
				0.015702171251177788
			],
			"min":[
				0.29066935181617737,
				-0.09687196463346481,
				-0.006027295719832182
			],
			"type":"VEC3"
		},
		{
			"bufferView":13,
			"componentType":5126,
			"count":72,
			"type":"VEC3"
		},
		{
			"bufferView":14,
			"componentType":5126,
			"count":72,
			"type":"VEC2"
		},
		{
			"bufferView":15,
			"componentType":5123,
			"count":132,
			"type":"SCALAR"
		},
		{
			"bufferView":16,
			"componentType":5126,
			"count":8,
			"max":[
				0.09150153398513794,
				0.7698081731796265,
				0.09397336095571518
			],
			"min":[
				0.09150148928165436,
				0.581861674785614,
				-0.09397310018539429
			],
			"type":"VEC3"
		},
		{
			"bufferView":17,
			"componentType":5126,
			"count":8,
			"type":"VEC3"
		},
		{
			"bufferView":18,
			"componentType":5126,
			"count":8,
			"type":"VEC2"
		},
		{
			"bufferView":19,
			"componentType":5123,
			"count":18,
			"type":"SCALAR"
		}
	],
	"bufferViews":[
		{
			"buffer":0,
			"byteLength":12540,
			"byteOffset":0,
			"target":34962
		},
		{
			"buffer":0,
			"byteLength":12540,
			"byteOffset":12540,
			"target":34962
		},
		{
			"buffer":0,
			"byteLength":8360,
			"byteOffset":25080,
			"target":34962
		},
		{
			"buffer":0,
			"byteLength":3996,
			"byteOffset":33440,
			"target":34963
		},
		{
			"buffer":0,
			"byteLength":21060,
			"byteOffset":37436,
			"target":34962
		},
		{
			"buffer":0,
			"byteLength":21060,
			"byteOffset":58496,
			"target":34962
		},
		{
			"buffer":0,
			"byteLength":14040,
			"byteOffset":79556,
			"target":34962
		},
		{
			"buffer":0,
			"byteLength":6000,
			"byteOffset":93596,
			"target":34963
		},
		{
			"buffer":0,
			"byteLength":192,
			"byteOffset":99596,
			"target":34962
		},
		{
			"buffer":0,
			"byteLength":192,
			"byteOffset":99788,
			"target":34962
		},
		{
			"buffer":0,
			"byteLength":128,
			"byteOffset":99980,
			"target":34962
		},
		{
			"buffer":0,
			"byteLength":72,
			"byteOffset":100108,
			"target":34963
		},
		{
			"buffer":0,
			"byteLength":864,
			"byteOffset":100180,
			"target":34962
		},
		{
			"buffer":0,
			"byteLength":864,
			"byteOffset":101044,
			"target":34962
		},
		{
			"buffer":0,
			"byteLength":576,
			"byteOffset":101908,
			"target":34962
		},
		{
			"buffer":0,
			"byteLength":264,
			"byteOffset":102484,
			"target":34963
		},
		{
			"buffer":0,
			"byteLength":96,
			"byteOffset":102748,
			"target":34962
		},
		{
			"buffer":0,
			"byteLength":96,
			"byteOffset":102844,
			"target":34962
		},
		{
			"buffer":0,
			"byteLength":64,
			"byteOffset":102940,
			"target":34962
		},
		{
			"buffer":0,
			"byteLength":36,
			"byteOffset":103004,
			"target":34963
		}
	],
	"buffers":[
		{
			"byteLength":103040,
			"uri":"SniperRifle.bin"
		}
	]
}
